# xmcd CD database file
#
# Track frame offsets:
#	150
#	20390
#	41940
#	62945
#	79723
#	99955
#	131720
#	147935
#	167970
#	189418
#
# Disc length: 2897 seconds
#
# Revision: 0
# Processed by: cddbd v1.5.1PL0 Copyright (c) Steve Scherf et al.
# Submitted via: CDex 1.51
#
DISCID=890b4f0a
DTITLE=リチャード・クレイダーマン - ミステリアス・エターニティ
DYEAR=2002
DGENRE=Easy Listening
TTITLE0=人生と踊ろう
TTITLE1=海草の歌
TTITLE2=戦争を止めるための和音
TTITLE3=夜の恐れ
TTITLE4=天使の答え
TTITLE5=ミステリアス・エタニティー
TTITLE6=愛し合う人々が好き（恋する人に祝福を）
TTITLE7=わが人生の急行列車
TTITLE8=世界共通の祈り
TTITLE9=ゲームの終わり
EXTD=YEAR: 2002
EXTT0=
EXTT1=
EXTT2=
EXTT3=
EXTT4=
EXTT5=
EXTT6=
EXTT7=
EXTT8=
EXTT9=
PLAYORDER=
